<svg xmlns="http://www.w3.org/2000/svg" viewBox="0 0 765 200"
     width="765" height="200" role="img" aria-label="Tangbox">
  <title>Tangbox</title>
  <!-- Tangbox wordmark, 2026-08-19.
       The lettering is REAL TYPE, not a trace: Comfortaa Regular (weight 400,
       chosen by matching the source's stem-to-cap ratio of 0.107), shaped with
       HarfBuzz so the Ta pair kerns properly, plus 21.3 units/gap of tracking
       to match the original's width exactly.
       The orange is a true circle, larger than the letter o it replaces, as in
       the original. The leaves are traced from the artwork - they are not type.
       Transparent background. Nothing is clipped: the canvas allows for the
       leaves rising above the cap height and the g descending below the
       baseline.
       Colours: orange #EF8225, leaves #539B45, wordmark #000000. -->
  <g transform="translate(0,21.00)">
    <circle cx="622.20" cy="88.00" r="51.50" fill="#EF8225"/>
  </g>
  <g transform="translate(17.20,197.00) scale(0.1,-0.1)" fill="#539B45"><path d="M6390 1894 c-60 -16 -80 -28 -156 -88 -88 -70 -120 -128 -150 -269
-16 -77 -8 -107 29 -107 75 1 234 69 299 128 23 21 57 70 80 115 35 70 40 89
41 156 l2 76 -45 2 c-25 1 -70 -5 -100 -13z M5713 1773 c-8 -3 -13 -25 -13
-61 0 -44 6 -68 28 -104 58 -100 103 -133 226 -165 52 -13 60 -13 74 0 13 13
13 24 1 83 -27 136 -126 227 -269 247 -19 3 -41 3 -47 0z"/></g>
  <g transform="translate(0,21.00)" fill="#000000">
    <path d="M58.33290653008962 137.0Q55.64916773367477 137.0 53.7202304737516 135.07106274007683Q51.791293213828425 133.14212548015365 51.791293213828425 130.4583866837388V6.0H64.87451984635084V130.4583866837388Q64.87451984635084 133.14212548015365 63.02944942381562 135.07106274007683Q61.184379001280405 137.0 58.33290653008962 137.0ZM12.038412291933419 17.909090909090907Q9.354673495518565 17.909090909090907 7.677336747759282 16.23175416133163Q6.0 14.554417413572352 6.0 12.038412291933426Q6.0 9.354673495518568 7.677336747759282 7.677336747759284Q9.354673495518565 6.0 12.038412291933419 6.0H104.79513444302177Q107.47887323943661 6.0 109.1562099871959 7.677336747759284Q110.83354673495518 9.354673495518568 110.83354673495518 12.038412291933426Q110.83354673495518 14.554417413572352 109.1562099871959 16.23175416133163Q107.47887323943661 17.909090909090907 104.79513444302177 17.909090909090907Z"/>
    <path d="M147.28746621140988 137.83866837387964Q134.37197325366338 137.83866837387964 124.14021909233176 131.71638924455826Q113.90846493100014 125.59411011523687 107.95391947645469 115.02688860435339Q101.99937402190923 104.4596670934699 101.99937402190923 91.20870678617158Q101.99937402190923 77.79001280409732 108.12165315123062 67.22279129321383Q114.243932280552 56.655569782330346 124.81115379143549 50.53329065300896Q135.37837530231897 44.41101152368758 148.6293356096173 44.41101152368758Q161.88029591691566 44.41101152368758 172.36365059041117 50.53329065300896Q182.84700526390668 56.655569782330346 188.96928439322807 67.22279129321383Q195.09156352254945 77.79001280409732 195.25929719732537 91.20870678617158L190.0595532792716 95.23431498079385Q190.0595532792716 107.31113956466069 184.440475174278 116.95582586427656Q178.8213970692844 126.60051216389245 169.17671076966852 132.21959026888604Q159.53202447005265 137.83866837387964 147.28746621140988 137.83866837387964ZM148.6293356096173 126.09731113956467Q158.35788874662114 126.09731113956467 165.98977094892587 121.56850192061461Q173.62165315123062 117.03969270166453 178.06659553279272 109.07234314980793Q182.51153791435482 101.10499359795134 182.51153791435482 91.20870678617158Q182.51153791435482 81.14468629961587 178.06659553279272 73.26120358514724Q173.62165315123062 65.37772087067862 165.98977094892587 60.76504481434059Q158.35788874662114 56.15236875800257 148.6293356096173 56.15236875800257Q139.0685161473894 56.15236875800257 131.3527671076967 60.76504481434059Q123.63701806800398 65.37772087067862 119.10820884905392 73.26120358514724Q114.57939963010386 81.14468629961587 114.57939963010386 91.20870678617158Q114.57939963010386 101.10499359795134 119.10820884905392 109.07234314980793Q123.63701806800398 117.03969270166453 131.3527671076967 121.56850192061461Q139.0685161473894 126.09731113956467 148.6293356096173 126.09731113956467ZM188.71768388106415 137.0Q185.8662114098734 137.0 184.02114098733819 135.23879641485274Q182.17607056480296 133.47759282970551 182.17607056480296 130.62612035851473V101.94366197183098L185.36301038554558 88.69270166453265L195.25929719732537 91.20870678617158V130.62612035851473Q195.25929719732537 133.47759282970551 193.41422677479017 135.23879641485274Q191.56915635225494 137.0 188.71768388106415 137.0Z"/>
    <path d="M302.6645611039977 137.0Q299.81308863280697 137.0 297.96801821027174 135.15492957746477Q296.1229477877365 133.30985915492957 296.1229477877365 130.62612035851473V87.01536491677336Q296.1229477877365 76.61587708066581 292.1812064305022 69.90653008962869Q288.23946507326787 63.19718309859155 281.44625124484276 59.84250960307298Q274.6530374164177 56.487836107554415 266.09862000284534 56.487836107554415Q257.87966993882486 56.487836107554415 251.2541897851757 59.67477592829705Q244.62870963152653 62.86171574903969 240.77083511168019 68.39692701664532Q236.91296059183384 73.93213828425095 236.91296059183384 80.97695262483995H227.68760847915777Q228.02307582870964 70.40973111395647 233.39055342153932 62.10691421254802Q238.75803101436904 53.80409731113957 247.64791577749327 49.023687580025616Q256.53780054061747 44.24327784891166 267.4404894010528 44.24327784891166Q279.34958031014366 44.24327784891166 288.7426660975957 49.19142125480154Q298.1357518850477 54.13956466069142 303.58709631526534 63.70038412291934Q309.038440745483 73.26120358514726 309.038440745483 87.01536491677336V130.62612035851473Q309.038440745483 133.30985915492957 307.19337032294777 135.15492957746477Q305.3482999004126 137.0 302.6645611039977 137.0ZM230.53908095034856 137.0Q227.51987480438186 137.0 225.7586712192346 135.23879641485274Q223.99746763408737 133.47759282970551 223.99746763408737 130.62612035851473V51.791293213828425Q223.99746763408737 48.77208706786172 225.7586712192346 47.01088348271447Q227.51987480438186 45.24967989756722 230.53908095034856 45.24967989756722Q233.39055342153935 45.24967989756722 235.15175700668658 47.01088348271447Q236.91296059183384 48.77208706786172 236.91296059183384 51.791293213828425V130.62612035851473Q236.91296059183384 133.47759282970551 235.15175700668658 135.23879641485274Q233.39055342153935 137.0 230.53908095034856 137.0Z"/>
    <path d="M381.5551002987623 137.83866837387964Q368.30413999146396 137.83866837387964 358.07238583013236 131.88412291933417Q347.8406316688007 125.92957746478874 342.05381988903116 115.36235595390525Q336.26700810926167 104.79513444302177 336.26700810926167 91.20870678617158Q336.26700810926167 77.45454545454545 342.3054204011951 66.88732394366198Q348.3438326931285 56.3201024327785 358.911054204012 50.36555697823304Q369.47827571489546 44.41101152368758 382.8969696969697 44.41101152368758Q396.4833973538199 44.41101152368758 406.9667520273154 50.36555697823304Q417.4501067008109 56.3201024327785 423.4046521553564 66.88732394366198Q429.35919760990186 77.45454545454545 429.52693128467774 91.20870678617158L421.978915919761 95.23431498079385Q421.978915919761 107.64660691421255 416.77917200170725 117.29129321382842Q411.57942808365345 126.9359795134443 402.4379428083654 132.38732394366195Q393.2964575330773 137.83866837387964 381.5551002987623 137.83866837387964ZM383.23243704652157 173.23047375160053Q369.98147673922324 173.23047375160053 359.91745625266753 168.28233034571065Q349.85343576611183 163.33418693982074 343.31182244985064 154.7797695262484Q341.4667520273154 152.76696542893725 341.71835253947927 150.41869398207427Q341.9699530516432 148.07042253521126 344.15049082373025 146.56081946222793Q346.3310285958173 145.05121638924456 349.0147673922322 145.55441741357234Q351.69850618864706 146.05761843790012 353.2081092616304 148.07042253521126Q358.0723858301323 154.10883482714468 365.7042680324371 157.7989756722151Q373.3361502347418 161.48911651728554 383.4001707212975 161.48911651728554Q392.7932565087495 161.48911651728554 400.3412718736663 156.96030729833547Q407.88928723858305 152.4314980793854 412.33422962014515 144.21254801536492Q416.77917200170725 135.99359795134444 416.77917200170725 124.92317541613316V99.42765685019207L421.64344857020916 89.69910371318822L429.52693128467774 91.20870678617158V125.42637644046094Q429.52693128467774 139.01280409731115 423.48851899274433 149.83162612035852Q417.4501067008109 160.6504481434059 407.0506188647034 166.9404609475032Q396.65113102859584 173.23047375160053 383.23243704652157 173.23047375160053ZM382.8969696969697 126.09731113956467Q392.7932565087495 126.09731113956467 400.4251387110542 121.65236875800257Q408.05702091335894 117.20742637644047 412.4180964575331 109.32394366197184Q416.77917200170725 101.4404609475032 416.77917200170725 91.20870678617158Q416.77917200170725 80.97695262483995 412.4180964575331 73.00960307298337Q408.05702091335894 65.04225352112677 400.4251387110542 60.59731113956467Q392.7932565087495 56.15236875800257 382.8969696969697 56.15236875800257Q373.0006828851899 56.15236875800257 365.2849338454972 60.59731113956467Q357.5691848058045 65.04225352112677 353.2081092616304 73.00960307298337Q348.84703371745627 80.97695262483995 348.84703371745627 91.20870678617158Q348.84703371745627 101.4404609475032 353.2081092616304 109.32394366197184Q357.5691848058045 117.20742637644047 365.2849338454972 121.65236875800257Q373.0006828851899 126.09731113956467 382.8969696969697 126.09731113956467Z"/>
    <path d="M504.72732963437187 137.83866837387964Q491.6441030018495 137.83866837387964 481.160748328354 131.80025608194623Q470.6773936548584 125.7618437900128 464.555114525537 115.27848911651728Q458.43283539621564 104.79513444302177 458.26510172143975 91.71190781049935V12.541613316261206Q458.26510172143975 9.5224071702945 460.026305306587 7.76120358514725Q461.7875088917342 6.0 464.80671503770094 6.0Q467.65818750889173 6.0 469.419391094039 7.76120358514725Q471.18059467918624 9.5224071702945 471.18059467918624 12.541613316261206V61.85531370038413Q476.7158059467919 53.97183098591549 485.85729122208 49.19142125480153Q494.99877649736806 44.41101152368758 506.2369327073552 44.41101152368758Q519.1524256651016 44.41101152368758 529.3841798264333 50.53329065300896Q539.615933987765 56.655569782330346 545.5704794423104 67.22279129321383Q551.5250248968558 77.79001280409732 551.5250248968558 91.04097311139566Q551.5250248968558 104.4596670934699 545.4027457675345 115.02688860435339Q539.280466638213 125.59411011523687 528.7132451273296 131.71638924455826Q518.1460236164462 137.83866837387964 504.72732963437187 137.83866837387964ZM504.72732963437187 126.09731113956467Q514.4558827713757 126.09731113956467 522.1716318110684 121.48463508322664Q529.8873808507611 116.8719590268886 534.3323232323232 108.98847631241998Q538.7772656138853 101.10499359795134 538.7772656138853 91.04097311139566Q538.7772656138853 81.14468629961587 534.3323232323232 73.17733674775928Q529.8873808507611 65.20998719590268 522.1716318110684 60.681177976952625Q514.4558827713757 56.15236875800257 504.72732963437187 56.15236875800257Q495.16651017214394 56.15236875800257 487.45076113245125 60.681177976952625Q479.73501209275855 65.20998719590268 475.3739365485844 73.17733674775928Q471.0128610044103 81.14468629961587 471.0128610044103 91.04097311139566Q471.0128610044103 101.10499359795134 475.3739365485844 108.98847631241998Q479.73501209275855 116.8719590268886 487.45076113245125 121.48463508322664Q495.16651017214394 126.09731113956467 504.72732963437187 126.09731113956467Z"/>
    <path d="M753.2523260776783 137.0Q751.239521980367 137.0 749.9815194195476 136.32906530089627Q748.7235168587282 135.65813060179258 747.3816474605208 133.9807938540333L718.3637217242851 97.07938540332907L713.3317114810073 92.71830985915493L684.1460520699958 55.64916773367477Q682.3009816474606 53.46862996158771 682.3848484848486 51.120358514724714Q682.4687153222364 48.77208706786172 683.9783183952198 47.01088348271447Q685.4879214682032 45.24967989756722 688.339393939394 45.24967989756722Q691.1908664105848 45.24967989756722 693.2036705078959 47.262483994878366L721.3829278702518 83.32522407170295L725.9117370892019 87.01536491677336L757.1102005975246 126.9359795134443Q759.2907383696116 129.61971830985917 758.9552710200599 131.96798975672215Q758.619803670508 134.31626120358516 756.8586000853606 135.65813060179258Q755.0973965002134 137.0 753.2523260776783 137.0ZM686.8297908664107 137.0Q684.1460520699958 137.0 682.5525821596245 135.32266325224072Q680.9591122492532 133.64532650448143 680.8752454118652 131.29705505761842Q680.7913785744772 128.94878361075544 682.6364489970124 126.76824583866838L713.4994451557832 88.18950064020487L720.7119931711482 97.75032010243278L691.3586000853606 134.98719590268885Q689.8489970123774 137.0 686.8297908664107 137.0ZM726.0794707639778 93.38924455825864 717.8605206999574 85.00256081946223 746.8784464361929 48.26888604353394Q748.0525821596244 46.591549295774655 749.4783183952198 45.92061459667094Q750.9040546308153 45.24967989756722 752.4136577037985 45.24967989756722Q755.2651301749894 45.24967989756722 756.7747332479728 47.01088348271447Q758.2843363209561 48.77208706786172 758.2004694835681 51.20422535211268Q758.1166026461801 53.63636363636364 756.4392658984209 55.816901408450704Z"/>
  </g>
</svg>
